PathFileType	4	(X/Y/Z)	 s06c0403.trc
DataRate	CameraRate	NumFrames	NumMarkers	Units	OrigDataRate	OrigDataStartFrame	OrigNumFrames
200	200	6	48	mm	200	1501	2000
Frame#	Time	racr			lacr			c7			jug			rlel			rdr			llel			ldr			s2			lic			ric			lasi			rasi			rpsi			lpsi			rgt			lgt			rth1			rth2			rth3			rth4			rlfc			rmfc			rsh1			rsh2			rsh3			rsh4			rlmal			rcal			rtoe			rmt5			lth1			lth2			lth4			lth3			llfc			lmfc			llmal			lcal			lmt5			lsh1			lsh2			lsh3			lsh4			ltoe			SBIKE			LBIKE			RBIKE			
		X1	Y1	Z1	X2	Y2	Z2	X3	Y3	Z3	X4	Y4	Z4	X5	Y5	Z5	X6	Y6	Z6	X7	Y7	Z7	X8	Y8	Z8	X9	Y9	Z9	X10	Y10	Z10	X11	Y11	Z11	X12	Y12	Z12	X13	Y13	Z13	X14	Y14	Z14	X15	Y15	Z15	X16	Y16	Z16	X17	Y17	Z17	X18	Y18	Z18	X19	Y19	Z19	X20	Y20	Z20	X21	Y21	Z21	X22	Y22	Z22	X23	Y23	Z23	X24	Y24	Z24	X25	Y25	Z25	X26	Y26	Z26	X27	Y27	Z27	X28	Y28	Z28	X29	Y29	Z29	X30	Y30	Z30	X31	Y31	Z31	X32	Y32	Z32	X33	Y33	Z33	X34	Y34	Z34	X35	Y35	Z35	X36	Y36	Z36	X37	Y37	Z37	X38	Y38	Z38	X39	Y39	Z39	X40	Y40	Z40	X41	Y41	Z41	X42	Y42	Z42	X43	Y43	Z43	X44	Y44	Z44	X45	Y45	Z45	X46	Y46	Z46	X47	Y47	Z47	X48	Y48	Z48	
1501	7.5050	783.970584	1258.191661	-86.032813	814.303117	1183.893177	-401.415444	825.308950	1308.962525	-249.405140	767.148754	1154.898397	-235.230369	591.547141	1123.279815	73.274117	696.045600	950.021129	-17.606784	575.854297	1103.168094	-533.804243	677.883420	947.734143	-418.638176	243.283466	1210.396384	-261.082660	396.034479	1116.178833	-418.824543	379.921302	1177.006835	-95.300333	406.097930	1070.430669	-370.488870	399.647622	1123.825489	-124.697856	281.778633	1244.618830	-235.668689	284.262039	1233.611117	-293.631977	348.413825	1111.575926	-44.736124	338.499855	1047.567493	-433.892140	433.287775	1011.033160	-39.628048	497.617099	950.462173	-42.686924	525.755116	866.485468	-42.601572	525.565848	966.830898	-66.783425	539.431477	764.797999	-56.556498	518.784877	742.231074	-164.254573	439.568794	696.648831	-29.162058	373.396489	642.155026	-47.793379	288.698432	621.231403	-46.560308	386.389112	623.547260	-81.569145	208.468323	594.601446	-49.185839	162.594462	638.991574	-98.544747	213.499185	366.329102	-95.334000	170.534794	456.681129	-27.670697	337.203326	920.593352	-448.195415	370.453394	841.138568	-438.079430	406.447879	846.598058	-429.814509	358.791763	753.152717	-426.134419	355.771642	635.972430	-402.632700	357.693532	621.113552	-289.162018	236.351683	285.596720	-371.707119	167.249264	289.931169	-321.550423	322.770621	171.777485	-399.889881	321.791868	530.005387	-416.961443	316.725343	446.057326	-395.504543	269.044391	372.069398	-389.512027	344.791433	442.321884	-367.092240	404.178460	138.282376	-344.376762	-204.356767	867.112764	-204.068592	-52.126555	83.778608	-410.652088	-50.915226	80.504129	-13.187874	
1502	7.5100	783.033862	1258.144181	-83.695285	813.698093	1185.187054	-400.060217	824.502741	1309.084218	-247.469541	766.191364	1155.085721	-233.456519	590.347049	1122.920824	74.691799	696.375252	949.235496	-18.063102	576.596974	1103.395374	-534.291267	678.360571	947.750524	-419.209288	242.919660	1208.218204	-263.740313	397.369393	1113.848143	-418.410988	377.935592	1178.744704	-96.347903	407.343027	1068.741994	-369.961568	398.866871	1125.437186	-124.667223	281.039457	1242.964698	-239.243499	284.335720	1231.300180	-296.793461	347.273146	1114.105808	-45.382421	339.925023	1044.023882	-433.878711	434.737646	1014.974137	-39.210217	502.232158	955.243997	-44.242750	530.864129	872.983388	-42.137408	528.317282	973.371849	-65.939823	547.432012	771.929701	-56.415953	527.663963	748.809244	-164.549745	447.927906	703.458946	-29.301172	381.810301	648.744076	-48.083766	297.054779	627.961259	-46.764504	395.066801	630.027193	-81.452042	216.494216	600.599655	-49.416038	169.069294	644.276199	-99.340015	224.267028	372.511503	-95.546931	180.348003	462.229709	-27.977997	335.629192	917.319358	-447.745153	367.121761	837.012036	-437.347811	402.653598	841.778174	-429.134251	353.135633	749.424137	-425.368306	348.208341	632.865334	-402.015339	349.581517	617.725369	-288.416156	230.159669	282.324127	-371.336704	162.099631	288.580191	-321.289086	314.207827	165.866719	-399.708977	314.324497	526.878515	-416.487758	309.637030	442.833332	-395.273157	262.203049	368.680717	-389.321069	337.807034	439.007293	-366.895169	394.611365	129.945170	-344.181930	-204.396555	867.083796	-204.090238	-52.147628	83.776133	-410.621214	-50.978446	80.736747	-13.000701	
1503	7.5150	782.311589	1258.301290	-81.057379	813.106453	1186.537542	-398.770793	823.801064	1308.921676	-245.542405	765.128608	1155.115635	-231.182284	589.205567	1122.238479	75.638412	696.429051	949.433045	-17.696941	577.335703	1103.662721	-534.829874	679.017736	947.765956	-419.823938	242.569172	1206.139479	-266.781439	398.904445	1111.751531	-417.769210	376.002312	1180.665532	-97.239767	408.702485	1066.984371	-369.347936	398.192578	1127.320530	-124.514165	280.250993	1241.442515	-242.511825	284.392194	1229.451404	-300.050274	345.990034	1116.591881	-45.939871	341.550215	1040.673392	-433.792050	435.722890	1018.658532	-39.261643	506.092184	960.120857	-44.960110	535.529294	879.267656	-41.622100	530.685123	979.879082	-64.733789	554.747373	779.841500	-56.071137	536.212198	755.648530	-165.032381	456.188803	710.161571	-29.728504	390.201074	655.328546	-48.369561	305.484311	634.379620	-47.003147	403.493367	636.561310	-81.652961	224.381665	606.145144	-49.737695	176.973389	649.470156	-99.121555	236.228962	379.063781	-94.662674	190.191829	467.385085	-28.353508	334.159574	914.468295	-447.304318	363.673159	833.432408	-436.723868	399.247323	837.384626	-428.296768	347.593323	746.164015	-424.610690	340.835330	630.212352	-401.385142	342.119732	615.145170	-287.689813	224.048629	279.681109	-370.898236	157.073526	287.951389	-321.022835	305.420269	160.530332	-399.554425	306.986904	524.348012	-415.962866	302.690476	440.155959	-395.058623	255.514503	365.874599	-389.020020	331.028474	436.356472	-366.935933	384.710128	122.171161	-344.171741	-204.448042	867.089395	-204.093807	-52.154922	83.778573	-410.626108	-50.991061	80.755010	-12.976578	
1504	7.5200	781.495662	1257.918912	-78.819854	812.497424	1187.877530	-397.574462	823.292737	1308.649036	-243.607046	763.928111	1155.107294	-229.514060	587.842916	1121.421644	76.528118	696.229232	949.952380	-17.031902	578.073125	1103.970379	-535.298101	679.688790	947.747775	-420.485073	242.304826	1204.375700	-269.667285	400.651227	1110.036572	-416.972017	374.066547	1182.711702	-98.499699	410.012061	1065.224969	-368.585852	397.476999	1129.375755	-124.756388	279.765580	1239.986428	-245.582990	284.708549	1227.723066	-303.033250	344.544460	1118.794510	-46.538124	343.253581	1037.629925	-433.675824	436.051112	1022.642844	-37.888781	508.246636	965.905446	-44.634874	538.756779	886.524717	-39.875735	532.377259	986.486223	-64.074819	561.953978	787.332836	-56.139679	544.465824	762.631934	-165.509526	464.212713	716.967299	-30.104440	398.450530	661.738875	-48.609950	313.941404	640.341333	-47.406340	411.904934	642.928015	-81.817535	232.517398	610.944718	-50.215627	183.852587	653.781973	-99.498784	247.043507	383.842837	-95.870450	200.319745	471.972843	-28.691277	332.698551	912.102165	-446.948548	360.361723	830.439765	-436.163066	396.128535	833.307146	-427.094775	342.289041	743.564215	-423.912256	333.786200	628.177903	-400.964616	335.172410	613.229025	-286.967371	218.096674	277.785793	-370.478044	152.154543	287.928918	-320.703342	296.451605	155.769351	-399.360973	299.886902	522.294305	-415.454075	295.966336	438.023823	-394.935547	249.084892	363.591685	-388.732815	324.401192	434.351798	-366.885958	374.532489	114.934347	-344.208213	-204.478982	867.102663	-204.170178	-52.147247	83.772039	-410.642706	-50.986322	80.739330	-13.001994	
1505	7.5250	781.068703	1257.578293	-76.024182	811.976048	1189.179111	-396.428142	822.901362	1308.266845	-241.655089	763.003346	1154.967363	-227.434586	586.501267	1120.801166	77.401056	696.048442	950.613966	-16.280262	578.769656	1104.263628	-535.612982	680.382567	947.767176	-421.142964	242.436457	1203.246040	-272.712373	402.635287	1108.576350	-416.017899	372.175585	1184.575582	-99.493498	411.055135	1063.296543	-367.890855	396.786963	1131.367113	-124.900616	279.270260	1238.756930	-248.016459	285.104374	1226.333706	-305.735173	343.103056	1120.786227	-47.260946	345.031370	1034.906689	-433.587951	435.560085	1026.761215	-36.333265	510.165293	971.464139	-43.979686	543.042131	893.357501	-39.276100	533.633925	993.035527	-63.577047	569.023390	794.738615	-56.439345	552.303948	769.766158	-166.251482	471.745564	723.562573	-30.378501	406.446570	668.001074	-49.012124	322.188636	646.180050	-47.692313	420.030650	648.913798	-82.094187	240.189869	615.384078	-50.680416	190.586784	657.392072	-99.890461	258.767905	388.535464	-96.211989	210.376276	475.824493	-29.138422	331.376207	910.261086	-446.658940	357.090953	828.093631	-435.720771	392.971236	830.192589	-426.403590	337.282875	741.568012	-423.325306	327.111832	626.510063	-400.507972	328.504706	611.895023	-286.356643	212.399484	276.489592	-370.125776	147.471090	288.618666	-320.383940	287.309153	151.563619	-399.142298	293.045337	520.859749	-415.100739	289.546815	436.510074	-394.855029	242.949825	361.832995	-388.335219	317.981362	432.932412	-367.110770	364.040147	108.258725	-344.312213	-204.532719	867.101383	-204.194092	-52.144833	83.754409	-410.667318	-50.987238	80.773353	-12.992064	
1506	7.5300	780.247977	1256.082118	-75.184118	811.450632	1190.547645	-395.362275	822.621205	1307.638686	-239.643729	761.714057	1154.630080	-226.903266	585.201535	1120.157238	78.196095	695.780944	951.164036	-15.743736	579.521852	1104.534137	-535.658571	681.214153	947.792719	-421.743337	242.751132	1202.107727	-275.718468	404.788242	1107.299285	-414.905300	370.347936	1186.399818	-100.553360	411.859947	1061.191253	-367.312373	396.198406	1133.396672	-125.150090	279.025186	1238.063354	-251.103591	285.592675	1225.422147	-308.377295	341.700306	1122.599531	-48.090671	346.694210	1032.475123	-433.499032	435.822200	1030.246692	-35.650070	511.655898	976.933805	-43.465311	546.942550	899.884479	-38.927899	536.012189	999.552379	-62.744397	575.599276	801.698110	-56.613910	559.450220	776.530121	-167.346784	479.185049	730.276006	-30.842319	414.360306	674.283978	-49.311302	330.243308	651.805325	-47.983119	428.367861	655.085815	-82.011087	248.052344	619.294984	-51.071137	197.147061	660.272038	-100.214638	270.805829	393.003816	-96.591710	220.850128	479.226908	-29.492222	330.136657	908.977593	-446.535585	354.218072	826.285894	-435.331111	390.283786	827.724738	-425.729423	332.635532	740.217537	-423.035337	320.902799	625.299521	-399.998298	322.246402	610.925092	-285.696629	206.956888	275.752505	-369.766194	143.139842	289.939524	-320.090814	277.954376	148.189739	-399.421143	286.639324	519.862912	-414.871980	283.539586	435.446179	-394.860585	237.113948	360.630410	-388.096754	312.082190	431.940496	-367.190424	353.163293	101.890599	-344.413025	-204.587041	867.090839	-204.200117	-52.169046	83.790657	-410.658858	-50.987936	80.768055	-13.006978	
